# xmcd
#
# Track frame offsets: 
#        150
#        14373
#        28322
#        41012
#        56537
#        67956
#        81082
#        94126
#        104471
#        115695
#        129095
#        142099
#        155977
#        170384
#        184221
#        196322
#        210974
#        224252
#        238673
#        251715
#        266555
#        279097
#        292355
#        305161
#        315622
#
# Disc length: 4373 seconds
#
# Revision: 0
# Processed by: cddbd v1.5.2PL0 Copyright (c) Steve Scherf et al.
# Submitted via: ExactAudioCopy v0.99pb4
#
DISCID=78111319
DTITLE=Various Artist - Big Town Playboys CD2
DYEAR=2006
DGENRE=Blues
TTITLE0=Willie Mabon - I Don't Know
TTITLE1=Jimmy Reed - You Don't Have to Go
TTITLE2=Jimmy Reed - I Found My Baby
TTITLE3=Eddie Boyd - 24 Hours
TTITLE4=Johnny Shines - Evening Sun
TTITLE5=Johnny Shines - Brutal Hearted Woman
TTITLE6=Jimmy Eager - Please Mr Doctor
TTITLE7=J B Hutto - Combination Boogie
TTITLE8=J B Hutto - Pet Cream Man
TTITLE9=Snooky Pryor - Crosstown Blues
TTITLE10=Muddy Waters - I'm Your Hoochie Coochie Man
TTITLE11=Big Walter Horton - Hard Hearted Woman
TTITLE12=Big Walter Horton - Back Home To Mama
TTITLE13=Elmore James - She Just Won't Do It Right
TTITLE14=Elmore James - Country Boogie
TTITLE15=Floyd Jones - Schooldays (On My Mind)
TTITLE16=Curtis Jones - Cool Playing Blues
TTITLE17=Curtis Jones - Wrong Blues
TTITLE18=Big Boy Spires - Which One Do I Love
TTITLE19=L C McKinley - Weeping Willow Blues
TTITLE20=L C McKinley - Be My Companion Blues
TTITLE21=Howlin'  Wolf - Evil
TTITLE22=Howlin' Wolf - Forty Four Blues
TTITLE23=J B Lenoir - Mama Talk To Your Daughter
TTITLE24=Little Walter - Lights Out
EXTD=
EXTT0=
EXTT1=
EXTT2=
EXTT3=
EXTT4=
EXTT5=
EXTT6=
EXTT7=
EXTT8=
EXTT9=
EXTT10=
EXTT11=
EXTT12=
EXTT13=
EXTT14=
EXTT15=
EXTT16=
EXTT17=
EXTT18=
EXTT19=
EXTT20=
EXTT21=
EXTT22=
EXTT23=
EXTT24=
PLAYORDER=
